:SAMPLES-PER-SECOND 30
:FULLY-SPECIFIED
:DEGREES
317
root  -6.39527 28.6524 -9.99622 14.4286 -80.4166 -17.6298
RightUpLeg  -45.733 3.51762 -2.99874
RightLeg  76.5186 -3.75537 -12.2277
RightFoot  -10.4136 0.157829 2.10953
RightToes  -35.2633 -0.181793 -0.286833
Spine  12.3244 -4.96864 0.432314
Spine1  23.6845 -10.4305 1.81306
HEad  -9.22564 -49.7273 54.2768
LeftShoulder1  0 -2.42657e-020 -4.95415e-022
LeftArm  -11.2811 1.26531 -90.2501
LeftForeArm  26.5408 -56.3026 -15.3809
LeftHand  -0.159672 -8.90941 1.68067
RightShoulder  0 2.42657e-020 1.07489e-018
RightArm  -73.8954 4.18162 29.4747
RightForeArm  63.9876 0.278509 0.00664894
RightHand  -0.124089 19.1478 -0.365799
LeftUpLeg  -48.2225 -23.4623 10.8457
LeftLeg  58.6461 -18.4002 -24.246
LeftFoot  -6.08669 0.169606 3.18926
LeftToes  -59.5001 1.71452e-006 7.46813e-008
318
root  -5.16307 28.1565 -9.97827 174.848 -81.4684 -179.859
RightUpLeg  -44.6443 4.57074 -0.60508
RightLeg  86.2197 -1.82131 -14.3691
RightFoot  -11.8797 0.249129 2.77185
RightToes  -32.6997 -0.162946 -0.270285
Spine  12.2244 -3.39381 0.160416
Spine1  23.5066 -6.75363 0.640298
HEad  -12.2754 -52.2711 55.876
LeftShoulder1  0 -2.42657e-020 -4.95415e-022
LeftArm  -12.612 5.70205 -88.8542
LeftForeArm  28.2458 -62.5259 -19.9121
LeftHand  -0.19541 -8.60947 2.2274
RightShoulder  0 2.42657e-020 1.07489e-018
RightArm  -73.9169 6.30385 29.3864
RightForeArm  62.1438 1.40924 0.208818
RightHand  0.0716037 19.8318 0.779858
LeftUpLeg  -45.1083 -28.147 12.6737
LeftLeg  58.6334 -17.8434 -23.6055
LeftFoot  -4.99688 0.106531 2.4411
LeftToes  -59.8422 1.71452e-006 7.46813e-008
319
root  -3.86689 27.2794 -10.0187 -178.121 -63.7021 172.979
RightUpLeg  -45.8947 2.42173 -3.52746
RightLeg  94.5334 0.330277 -13.8005
RightFoot  -16.5 0.497485 3.8078
RightToes  -28.9511 -0.136765 -0.24461
Spine  11.8219 -2.04478 0.548599
Spine1  22.5135 -3.3699 0.0179813
HEad  -15.0367 -53.051 56.8616
LeftShoulder1  0 -2.42657e-020 -4.95415e-022
LeftArm  -12.3865 9.44288 -86.1264
LeftForeArm  34.0407 -67.6978 -25.614
LeftHand  -0.260079 -9.0684 2.91097
RightShoulder  0 2.42657e-020 1.07489e-018
RightArm  -70.0748 10.0104 29.6405
RightForeArm  50.3612 4.53308 0.780944
RightHand  0.795171 19.3792 5.0262
LeftUpLeg  -43.1194 -26.8988 14.5099
LeftLeg  58.775 -8.59159 -12.0939
LeftFoot  -9.4565 0.174853 2.11377
LeftToes  -50.5571 1.71452e-006 7.46813e-008
320
root  -2.5125 26.1846 -10.0872 -175.725 -48.3597 171.821
RightUpLeg  -50.8879 -2.93189 -10.7049
RightLeg  100.566 1.90756 -14.3553
RightFoot  -20.4014 0.872113 5.22159
RightToes  -24.2302 -0.106274 -0.209934
Spine  11.6436 -1.23951 1.67091
Spine1  21.8135 -0.961472 0.187338
HEad  -18.6649 -51.3486 59.3984
LeftShoulder1  0 -2.42657e-020 -4.95415e-022
LeftArm  -10.3669 10.3494 -82.177
LeftForeArm  39.463 -70.7785 -30.5979
LeftHand  -0.345699 -9.29791 3.88218
RightShoulder  0 2.42657e-020 1.07489e-018
RightArm  -74.0513 14.8743 30.8641
RightForeArm  39.1241 6.49805 1.14448
RightHand  1.97655 21.635 10.6904
LeftUpLeg  -43.365 -20.4592 16.1774
LeftLeg  62.7518 -3.18755 -5.31336
LeftFoot  -11.3451 0.0739886 0.74486
LeftToes  -49.6634 1.71452e-006 7.46813e-008
321
root  -1.19674 25.1318 -10.4601 -176.337 -35.6284 172.581
RightUpLeg  -55.766 -9.90309 -18.1269
RightLeg  102.057 2.52228 -15.759
RightFoot  -23.8666 1.44028 7.18509
RightToes  -18.2949 -0.0721587 -0.162973
Spine  12.9741 -0.663372 3.67556
Spine1  24.1206 1.04535 1.49484
HEad  -22.7157 -48.2615 61.1806
LeftShoulder1  0 -2.42657e-020 -4.95415e-022
LeftArm  -9.27862 7.79187 -78.9018
LeftForeArm  42.9947 -71.4479 -31.9326
LeftHand  -0.436091 -10.2109 4.51122
RightShoulder  0 2.42657e-020 1.07489e-018
RightArm  -67.3905 18.1012 34.0534
RightForeArm  24.6471 12.8555 2.30467
RightHand  2.59265 22.3126 13.4652
LeftUpLeg  -40.3726 -11.5789 18.7383
LeftLeg  65.6607 -1.57105 -2.96221
LeftFoot  -13.6466 0.0123908 0.103545
LeftToes  -52.4136 1.71452e-006 7.46813e-008
322
root  0.306928 24.3104 -11.0921 -175.083 -23.8272 172.888
RightUpLeg  -63.9392 -18.0947 -22.816
RightLeg  98.879 1.70408 -16.7815
RightFoot  -24.8854 1.74806 8.28832
RightToes  -15.4846 -0.0577431 -0.139563
Spine  13.2732 -0.231119 5.09299
Spine1  24.9771 2.16877 2.28397
HEad  -23.0163 -45.4644 59.945
LeftShoulder1  0 -2.42657e-020 -4.95415e-022
LeftArm  -12.7703 9.44658 -79.139
LeftForeArm  46.4659 -72.2509 -33.6901
LeftHand  -0.471881 -9.57259 5.26497
RightShoulder  0 2.42657e-020 1.07489e-018
RightArm  -61.435 19.3169 39.0049
RightForeArm  21.6284 18.0773 3.29593
RightHand  1.47125 22.4571 7.77322
LeftUpLeg  -36.0942 -3.31715 22.3467
LeftLeg  65.3828 -0.934158 -1.74735
LeftFoot  -14.4707 -0.0447844 -0.352762
LeftToes  -56.1987 1.71452e-006 7.46813e-008
323
root  2.20223 23.8755 -12.0239 -172.477 -11.0041 172.625
RightUpLeg  -75.6863 -24.9843 -19.9056
RightLeg  91.5354 -0.603874 -18.4607
RightFoot  -24.6854 1.85954 8.8612
RightToes  -11.6163 -0.0398127 -0.106242
Spine  13.2297 0.976498 5.76963
Spine1  25.1745 4.21945 3.11143
HEad  -22.6545 -43.2098 58.7164
LeftShoulder1  0 -2.42657e-020 -4.95415e-022
LeftArm  -14.9784 12.5109 -80.0815
LeftForeArm  46.6532 -73.3649 -36.4738
LeftHand  -0.415582 -8.99271 4.91487
RightShoulder  0 2.42657e-020 1.07489e-018
RightArm  -63.3559 17.6527 42.8688
RightForeArm  16.3489 21.0889 3.89418
RightHand  0.675303 21.0696 4.00133
LeftUpLeg  -27.4972 3.99107 26.1291
LeftLeg  59.2068 -0.857091 -1.25823
LeftFoot  -12.8159 -0.0782866 -0.69707
LeftToes  -61.6684 1.71452e-006 7.46813e-008
324
root  4.51349 23.7894 -13.2911 -170.741 1.21619 172.563
RightUpLeg  -85.0306 -27.5649 -10.3908
RightLeg  81.3613 -3.96262 -17.9287
RightFoot  -25.3555 1.84148 8.55071
RightToes  -9.21456 -0.0298269 -0.0849728
Spine  13.8865 2.18421 6.72093
Spine1  26.6883 6.11077 4.82943
HEad  -23.8244 -40.1786 56.8476
LeftShoulder1  0 -2.42657e-020 -4.95415e-022
LeftArm  -16.4197 13.8067 -82.1276
LeftForeArm  48.948 -73.2331 -36.1204
LeftHand  -0.399516 -10.2562 4.08239
RightShoulder  0 2.42657e-020 1.07489e-018
RightArm  -67.2035 15.6407 42.5118
RightForeArm  13.6705 21.4465 3.96588
RightHand  -0.111569 18.4221 -0.318099
LeftUpLeg  -15.4499 7.07193 29.5436
LeftLeg  49.8964 -0.53503 -0.565604
LeftFoot  -4.66182 -0.0459501 -1.12884
LeftToes  -70.5732 1.71452e-006 7.46813e-008
325
root  7.17326 23.9426 -14.5927 -167.324 10.3363 170.888
RightUpLeg  -88.456 -26.3861 -3.41812
RightLeg  70.5656 -6.01669 -13.9499
RightFoot  -23.7828 1.24616 6.29056
RightToes  -11.2231 -0.0381168 -0.102788
Spine  13.2066 1.93516 6.32075
Spine1  25.4599 5.14195 5.02752
HEad  -23.1664 -37.4402 53.3317
LeftShoulder1  0 -2.42657e-020 -4.95415e-022
LeftArm  -18.4321 15.9205 -82.5267
LeftForeArm  49.6307 -72.3974 -34.03
LeftHand  -0.551972 -10.5375 5.61389
RightShoulder  0 2.42657e-020 1.07489e-018
RightArm  -72.8256 13.1701 42.8567
RightForeArm  12.2524 23.6144 4.41424
RightHand  -0.627982 15.9228 -4.11968
LeftUpLeg  -9.5522 5.99521 28.9972
LeftLeg  43.7615 0.59273 0.492692
LeftFoot  12.4671 0.0885757 -0.810923
LeftToes  -78.8398 1.71452e-006 7.46813e-008
326
root  9.97361 24.1816 -15.8814 -163.745 15.5778 168.824
RightUpLeg  -93.1109 -25.3846 3.21263
RightLeg  70.7506 -6.03993 -14.1225
RightFoot  -4.3474 0.00932301 0.623273
RightToes  -32.8562 -0.164076 -0.271319
Spine  11.8606 0.193201 5.74435
Spine1  22.9972 1.324 4.96834
HEad  -21.5208 -33.4437 48.597
LeftShoulder1  0 -2.42657e-020 -4.95415e-022
LeftArm  -19.9845 17.7203 -81.1144
LeftForeArm  46.0919 -70.8831 -30.7991
LeftHand  -0.571912 -10.0285 6.14562
RightShoulder  0 2.42657e-020 1.07489e-018
RightArm  -78.2145 11.109 41.6261
RightForeArm  8.52449 26.9595 5.13604
RightHand  0.0716933 17.4371 0.837822
LeftUpLeg  -11.3679 1.3617 26.7498
LeftLeg  45.1402 1.11906 0.98212
LeftFoot  28.8569 -0.0398088 0.154717
LeftToes  -57.6168 1.71452e-006 7.46813e-008
327
root  12.5812 24.504 -17.277 -163.107 21.2232 167.098
RightUpLeg  -95.6229 -24.0316 10.3767
RightLeg  74.0039 -3.14764 -8.94469
RightFoot  -5.32525 -0.0131834 0.0940782
RightToes  -31.7533 -0.156179 -0.263965
Spine  12.2156 -0.827235 5.57798
Spine1  23.6667 -0.628717 4.64158
HEad  -23.0645 -30.292 46.557
LeftShoulder1  0 -2.42657e-020 -4.95415e-022
LeftArm  -20.8688 14.7816 -79.445
LeftForeArm  39.836 -66.8489 -24.4952
LeftHand  -0.433923 -10.431 4.38399
RightShoulder  0 2.42657e-020 1.07489e-018
RightArm  -80.358 10.8274 35.6334
RightForeArm  6.77406 29.0143 5.60154
RightHand  0.847935 18.9207 5.45729
LeftUpLeg  -16.4304 -4.77316 23.076
LeftLeg  56.4592 -7.86182 -10.2163
LeftFoot  29.7737 1.84005 -6.91402
LeftToes  -34.0474 1.71452e-006 7.46813e-008
328
root  15.4487 24.7531 -18.7386 -164.509 29.2308 166.928
RightUpLeg  -91.5027 -18.4902 13.1986
RightLeg  77.5829 -1.64442 -5.97474
RightFoot  -11.6128 0.0107344 0.483139
RightToes  -18.4988 -0.073249 -0.164643
Spine  13.3133 -0.490345 4.95664
Spine1  25.6604 0.370296 3.42095
HEad  -21.7883 -28.6129 43.6838
LeftShoulder1  0 -2.42657e-020 -4.95415e-022
LeftArm  -20.7581 9.58192 -77.0533
LeftForeArm  35.1996 -58.8069 -16.9933
LeftHand  -0.526748 -9.8636 5.73277
RightShoulder  0 2.42657e-020 1.07489e-018
RightArm  -80.6992 10.5205 31.5668
RightForeArm  6.12946 32.4367 6.42369
RightHand  1.24405 20.4579 7.25837
LeftUpLeg  -19.6255 -2.60236 20.0448
LeftLeg  68.493 -9.54492 -19.4347
LeftFoot  23.6647 1.97867 -9.42437
LeftToes  -37.2438 1.71452e-006 7.46813e-008
329
root  18.3609 25.0313 -20.2461 -165.992 35.7067 166.101
RightUpLeg  -85.6342 -15.4324 15.1217
RightLeg  79.8548 -0.671771 -3.09707
RightFoot  -18.6104 -0.00983413 0.317541
RightToes  -14.0592 -0.0508746 -0.127426
Spine  13.8287 -0.281668 4.43115
Spine1  26.5431 1.41243 1.75881
HEad  -20.0507 -26.8122 39.6798
LeftShoulder1  0 -2.42657e-020 -4.95415e-022
LeftArm  -21.3519 5.92338 -75.1584
LeftForeArm  29.9828 -50.0709 -12.1845
LeftHand  -0.436741 -9.48369 4.89502
RightShoulder  0 2.42657e-020 1.07489e-018
RightArm  -81.9229 12.1366 27.2038
RightForeArm  4.5205 33.512 6.69352
RightHand  1.97287 21.3053 10.8337
LeftUpLeg  -25.9386 -0.02027 16.6958
LeftLeg  78.1107 -5.59085 -19.2936
LeftFoot  17.322 0.978081 -6.41447
LeftToes  -46.035 1.71452e-006 7.46813e-008
330
root  21.1544 25.3282 -21.801 -168.173 41.1846 163.212
RightUpLeg  -79.762 -13.4197 15.021
RightLeg  81.4586 -0.283345 -1.74337
RightFoot  -26.1739 -0.0291592 0.252122
RightToes  0.166634 0.00041236 0.00157729
Spine  13.5845 -0.0240729 3.11331
Spine1  25.6887 2.29519 -0.490037
HEad  -18.4968 -26.9545 36.9489
LeftShoulder1  0 -2.42657e-020 -4.95415e-022
LeftArm  -22.0601 4.34366 -73.2698
LeftForeArm  29.8622 -43.5102 -9.64255
LeftHand  -0.315418 -9.38564 3.47357
RightShoulder  0 2.42657e-020 1.07489e-018
RightArm  -85.4182 14.7996 23.5068
RightForeArm  4.3624 34.4327 6.93153
RightHand  2.02147 21.9751 10.7572
LeftUpLeg  -35.5831 1.00305 11.9697
LeftLeg  85.4097 -1.7022 -11.5938
LeftFoot  5.62379 0.0672991 -1.37015
LeftToes  -39.7033 1.71452e-006 7.46813e-008
331
root  24.0687 25.6905 -23.3761 -172.39 46.1983 159.105
RightUpLeg  -71.774 -11.7204 13.6633
RightLeg  81.6344 -0.446156 -2.53251
RightFoot  -32.9679 0.209943 1.08705
RightToes  13.4257 0.0182884 0.12977
Spine  13.5455 0.371243 1.3312
Spine1  25.2104 3.33243 -3.18478
HEad  -17.9895 -26.7345 35.6245
LeftShoulder1  0 -2.42657e-020 -4.95415e-022
LeftArm  -22.9349 3.7841 -71.2877
LeftForeArm  28.7649 -39.554 -8.37452
LeftHand  -0.336466 -9.13094 3.84472
RightShoulder  0 2.42657e-020 1.07489e-018
RightArm  -88.7081 17.8901 20.9476
RightForeArm  6.60281 37.7319 7.83548
RightHand  2.23317 22.4376 11.5976
LeftUpLeg  -45.3467 1.26885 7.44683
LeftLeg  88.8894 -0.0497169 -0.67502
LeftFoot  -3.08155 -0.00384018 -0.142777
LeftToes  -27.9509 1.71452e-006 7.46813e-008
